<svg xmlns="http://www.w3.org/2000/svg" viewBox="2573 -4331 53 53">
  <defs>
    <style>
      .cls-1 {
        fill: #0fa862;
        stroke: #0fa862;
      }

      .cls-1, .cls-2, .cls-3, .cls-4 {
        stroke-width: 1px;
      }

      .cls-2, .cls-3, .cls-4 {
        fill: none;
      }

      .cls-2 {
        stroke: #fdfeff;
      }

      .cls-3 {
        stroke: #f5fbff;
      }

      .cls-4 {
        stroke: #fff;
      }

      .cls-5 {
        fill: #fff;
        fill-rule: evenodd;
      }
    </style>
  </defs>
  <g id="Group_58" data-name="Group 58" transform="translate(-2 -4)">
    <path id="Path_6" data-name="Path 6" class="cls-1" d="M26.5.5A25.991,25.991,0,1,1,12.765,4.42,25.615,25.615,0,0,1,26.5.5Z" transform="translate(2575 -4327)"/>
    <g id="Group_57" data-name="Group 57" transform="translate(1 -1)">
      <g id="Goto_Box_Arrow" data-name="Goto Box &amp; Arrow" transform="translate(1840 -4829)">
        <g id="Group_56" data-name="Group 56" transform="translate(0 3)">
          <line id="Line_4" data-name="Line 4" class="cls-2" y2="29" transform="translate(775 540) rotate(90)"/>
          <line id="Line_5" data-name="Line 5" class="cls-3" y2="12" transform="translate(774.5 528.5)"/>
          <path id="Path_5" data-name="Path 5" class="cls-4" d="M0,0V12" transform="translate(758.5 512) rotate(90)"/>
          <line id="Line_6" data-name="Line 6" class="cls-4" y2="29" transform="translate(746.5 511.5)"/>
        </g>
      </g>
      <path id="path" class="cls-5" d="M23.449,9.743l-2.465,2.465,4.5,4.5H4v3.522H25.482L20.7,25.008l2.465,2.465,9.005-9.005Z" transform="translate(2579.413 -4304.721) rotate(-45)"/>
    </g>
  </g>
</svg>
